<?xml version="1.0" standalone="no"?>
<!DOCTYPE svg PUBLIC "-//W3C//DTD SVG 20010904//EN"
 "http://www.w3.org/TR/2001/REC-SVG-20010904/DTD/svg10.dtd">
<svg version="1.0" xmlns="http://www.w3.org/2000/svg"
 width="192.000000pt" height="192.000000pt" viewBox="0 0 192.000000 192.000000"
 preserveAspectRatio="xMidYMid meet">
<metadata>
Created by potrace 1.11, written by Peter Selinger 2001-2013
</metadata>
<g transform="translate(0.000000,192.000000) scale(0.100000,-0.100000)"
fill="#000000" stroke="none">
<path d="M885 1749 c-52 -26 -69 -30 -125 -27 -41 2 -82 12 -111 26 -25 12
-57 22 -70 22 -31 0 -236 -181 -245 -217 -5 -18 3 -33 34 -67 39 -42 62 -95
62 -144 0 -13 -34 -123 -75 -246 -41 -122 -79 -250 -84 -284 -18 -109 20 -264
90 -370 70 -108 159 -158 330 -191 124 -23 163 -38 211 -80 44 -38 70 -39 117
-2 59 47 96 61 212 82 218 39 326 127 396 320 21 60 26 91 26 169 0 101 -15
162 -112 443 -51 147 -54 203 -13 268 16 24 39 53 50 63 12 11 22 23 22 28 0
30 -220 228 -254 228 -13 0 -48 -11 -78 -25 -75 -35 -140 -33 -228 5 -38 17
-74 30 -82 30 -7 0 -40 -14 -73 -31z m-339 -779 l1 -65 67 -3 66 -3 0 71 0 70
70 0 69 0 3 -67 3 -68 68 -3 67 -3 0 71 0 70 70 0 69 0 3 -67 3 -68 68 -3 67
-3 0 71 0 70 70 0 69 0 3 -67 3 -68 68 -3 67 -3 0 71 0 70 30 0 c27 0 31 -4
46 -57 9 -32 19 -64 21 -70 4 -9 -8 -13 -40 -13 l-46 0 -3 -67 -3 -68 -72 -3
-73 -3 0 71 0 70 -65 0 -64 0 -3 -67 -3 -68 -72 -3 -73 -3 0 71 0 70 -65 0
-64 0 -3 -67 -3 -68 -72 -3 -73 -3 0 71 0 70 -65 0 -64 0 -3 -67 -3 -68 -72
-3 -73 -3 0 71 0 70 -65 0 -64 0 -3 -67 -3 -68 -64 -3 -64 -3 7 55 c9 83 12
86 67 86 l49 0 0 70 0 71 73 -3 72 -3 1 -65z"/>
</g>
</svg>
